<?xml version="1.0" encoding="UTF-8" standalone="no"?>
<!-- Created with Inkscape (http://www.inkscape.org/) -->

<svg
   width="512"
   height="512"
   viewBox="0 0 512 512"
   version="1.1"
   id="svg5"
   xmlns="http://www.w3.org/2000/svg"
   xmlns:svg="http://www.w3.org/2000/svg">
  <defs
     id="defs2" />
  <g
     id="layer1">
    <rect
       style="fill:#5864ff;fill-opacity:1"
       id="rect3364"
       width="510.27396"
       height="510.18863"
       x="1.9096086"
       y="1.23171"
       rx="0"
       ry="0" />
    <path
       style="fill:#ff7676;fill-opacity:1"
       id="path5715-3"
       d="m -295.8847,221.93093 -477.99308,-2.16258 240.86938,-412.87286 z"
       transform="matrix(0.84728286,0,0,0.49444748,661.90004,402.62795)" />
    <path
       style="fill:#ffaaaa;fill-opacity:1"
       id="path5715"
       d="m -295.8847,221.93093 -477.99308,-2.16258 240.86938,-412.87286 z"
       transform="matrix(0.8941205,0,0,0.62284583,848.20835,374.84104)" />
    <ellipse
       style="fill:#d9d9d9;fill-opacity:1;stroke-width:0.853105"
       id="path9261"
       cx="108.35682"
       cy="115.21827"
       rx="60.247517"
       ry="60.194561" />
    <path
       style="fill:none;fill-rule:evenodd;stroke:#000000;stroke-width:1.80046;stroke-dasharray:none;stroke-opacity:1"
       id="path11443"
       d="m 81.926033,84.929359 c 2.834908,2.782165 -2.351658,5.194022 -4.62414,4.711804 -6.158286,-1.30678 -7.220122,-9.169088 -4.799467,-13.960084 4.329984,-8.569968 15.77259,-9.67662 23.296028,-4.887131 11.040946,7.028769 12.204926,22.465313 4.974796,32.631972 -9.636631,13.55056 -29.189662,14.76377 -41.967918,5.06246 C 42.7252,96.280269 41.466939,72.55931 53.655211,57.184518 68.416841,38.563585 96.332168,37.262364 114.29501,51.946734 c 21.1686,17.305022 22.51166,49.430136 5.32545,69.975746 -19.842152,23.72073 -56.186834,25.10498 -79.311689,5.41311 C 14.032841,104.96044 12.607791,64.389573 34.807996,38.687957 59.713272,9.854628 104.51501,8.3890314 132.79158,33.099519 c 31.39235,27.433325 32.89832,76.469361 5.6761,107.319521"
       transform="matrix(0.7282072,0,0,0.77091043,43.039395,49.854222)" />
  </g>
</svg>
